# xmcd
#
# Track frame offsets:
#	225
#	20005
#	34525
#	57513
#	74271
#	94528
#	109800
#	129529
#	149919
#	165255
#	184735
#	203735
#	220657
#
# Disc length: 3318 seconds
#
# Revision: 0
# Processed by: cddbd v1.5PL3 Copyright (c) Steve Scherf et al.
# Submitted via: dBpowerAMP V4.0
#
DISCID=bb0cf30d
DTITLE=Tony Barca - Makana
DYEAR=1997
DGENRE=Blues
TTITLE0=Fatherhood
TTITLE1=I'm Gonna Love You
TTITLE2=That's All I Can Take
TTITLE3=The Way That We Dance
TTITLE4=My Baby's Gone Hollywood
TTITLE5=Highway Rider
TTITLE6=Already Over You
TTITLE7=I'm Tempted
TTITLE8=Little Girl of Mine
TTITLE9=Tired and Convicted
TTITLE10=Baby I Love You
TTITLE11=Sweet Talkin'
TTITLE12=Bye Bye Baby
EXTD=
EXTT0=
EXTT1=
EXTT2=
EXTT3=
EXTT4=
EXTT5=
EXTT6=
EXTT7=
EXTT8=
EXTT9=
EXTT10=
EXTT11=
EXTT12=
PLAYORDER=
